<?xml version="1.0" encoding="utf-8"?>
<!-- Generator: Adobe Illustrator 26.0.2, SVG Export Plug-In . SVG Version: 6.00 Build 0)  -->
<svg version="1.1" id="Layer_1" xmlns="http://www.w3.org/2000/svg" xmlns:xlink="http://www.w3.org/1999/xlink" x="0px" y="0px"
	 viewBox="0 0 256 256" style="enable-background:new 0 0 256 256;" xml:space="preserve">
<style type="text/css">
	.st0{fill:url(#SVGID_1_);}
	.st1{fill:url(#SVGID_00000082357273517065311970000010740821398415761057_);}
	.st2{fill:url(#SVGID_00000088128530978116220860000005836306394300135333_);}
	.st3{fill:url(#SVGID_00000183233050109704661810000015852247990790689727_);}
</style>
<g transform="translate(1.4065934065934016 1.4065934065934016) scale(2.81 2.81)">
	<linearGradient id="SVGID_1_" gradientUnits="userSpaceOnUse" x1="1.572823e-07" y1="45" x2="252.9" y2="45">
		<stop  offset="0.2593" style="stop-color:#FFDB6E"/>
		<stop  offset="1" style="stop-color:#FFBC5E"/>
	</linearGradient>
	<path class="st0" d="M80.9,78.8H9.1c-5,0-9.1-4.1-9.1-9.1V20.3c0-5,4.1-9.1,9.1-9.1h71.8c5,0,9.1,4.1,9.1,9.1v49.3
		C90,74.7,85.9,78.8,80.9,78.8z M9.1,17.2c-1.7,0-3.1,1.4-3.1,3.1v49.3c0,1.7,1.4,3.1,3.1,3.1h71.8c1.7,0,3.1-1.4,3.1-3.1V20.3
		c0-1.7-1.4-3.1-3.1-3.1C80.9,17.2,9.1,17.2,9.1,17.2z"/>
	
		<linearGradient id="SVGID_00000109030415932363838830000002675496104408571327_" gradientUnits="userSpaceOnUse" x1="2.493" y1="34.755" x2="241.3851" y2="34.755">
		<stop  offset="0.2593" style="stop-color:#FFDB6E"/>
		<stop  offset="1" style="stop-color:#FFBC5E"/>
	</linearGradient>
	<path style="fill:url(#SVGID_00000109030415932363838830000002675496104408571327_);" d="M45,55.4c-5.4,0-10.6-2.3-14.2-6.3
		l-28.3-31l4.4-4l28.3,31c2.5,2.8,6,4.3,9.8,4.3s7.3-1.5,9.8-4.3l28.3-31l4.4,4l-28.3,31C55.6,53.1,50.4,55.4,45,55.4z"/>
	
		<linearGradient id="SVGID_00000181797647699730471360000008084738127218599819_" gradientUnits="userSpaceOnUse" x1="2.6555" y1="60.1588" x2="91.8618" y2="60.1588">
		<stop  offset="0.2593" style="stop-color:#FFDB6E"/>
		<stop  offset="1" style="stop-color:#FFBC5E"/>
	</linearGradient>
	<polygon style="fill:url(#SVGID_00000181797647699730471360000008084738127218599819_);" points="2.7,71.9 30.1,44.2 34.4,48.5 
		6.9,76.1 	"/>
	
		<linearGradient id="SVGID_00000026133608074876769410000014116527689100246145_" gradientUnits="userSpaceOnUse" x1="55.6018" y1="60.1602" x2="144.8097" y2="60.1602">
		<stop  offset="0.2593" style="stop-color:#FFDB6E"/>
		<stop  offset="1" style="stop-color:#FFBC5E"/>
	</linearGradient>
	<polygon style="fill:url(#SVGID_00000026133608074876769410000014116527689100246145_);" points="55.6,48.5 59.9,44.2 87.3,71.9 
		83.1,76.1 	"/>
</g>
</svg>
