<?xml version="1.0" encoding="utf-8"?>
<!-- Generator: Adobe Illustrator 26.0.2, SVG Export Plug-In . SVG Version: 6.00 Build 0)  -->
<svg version="1.1" id="Layer_1" xmlns="http://www.w3.org/2000/svg" xmlns:xlink="http://www.w3.org/1999/xlink" x="0px" y="0px"
	 viewBox="0 0 256 256" style="enable-background:new 0 0 256 256;" xml:space="preserve">
<style type="text/css">
	.st0{fill:url(#SVGID_1_);}
</style>
<g transform="translate(1.4065934065934016 1.4065934065934016) scale(2.81 2.81)">
	<linearGradient id="SVGID_1_" gradientUnits="userSpaceOnUse" x1="-2.765594e-02" y1="45.0138" x2="252.9426" y2="45.0138">
		<stop  offset="0.2593" style="stop-color:#FFDB6E"/>
		<stop  offset="1" style="stop-color:#FFBC5E"/>
	</linearGradient>
	<path class="st0" d="M69.3,90c-13.6,0-30.9-10.9-44.6-24.7C6,46.6-7.5,21.6,4.5,7.8c0.8-0.9,1.7-1.6,2.9-2c1.4-0.6,4-1.7,7.7-3.2
		l0,0c1.7-0.7,3.3-1.5,4.6-2c2.9-1.3,6.4-0.2,8,2.6l10.4,17.5c1.1,1.9,1.2,4.3,0.1,6.3L32,38.5L51.5,58l11.6-6.2
		c2-1.1,4.4-1,6.3,0.1l16.3,9.7l2.2,1.4l0,0c2.1,1.8,2.8,4.8,1.7,7.4c-0.5,1.1-1.1,2.4-1.7,3.8l0.8-1.7L87.4,75
		c-1.5,3.6-2.7,6.2-3.2,7.6c-0.5,1.2-1.1,2.1-2,2.9C78.6,88.6,74.2,90,69.3,90z M18,8.9L18,8.9c-3.8,1.7-6.5,2.8-8,3.4
		c-0.1,0-0.2,0.1-0.2,0.1c-8.6,9.9,3.5,31.6,19.9,48c16.4,16.4,38.1,28.4,48,19.8h0c0,0,0,0,0.1-0.2c0.6-1.5,1.7-4.2,3.4-8l1.7-4
		l-16.8-9.9l-11.7,6.3c-2.5,1.3-5.5,0.9-7.5-1.1L26.8,43.2c-2-2-2.5-5-1.1-7.5l6.3-11.7L22,7.2C20.8,7.7,19.4,8.3,18,8.9z"/>
</g>
</svg>
