<?xml version="1.0" encoding="utf-8"?>
<!-- Generator: Adobe Illustrator 26.0.2, SVG Export Plug-In . SVG Version: 6.00 Build 0)  -->
<svg version="1.1" xmlns="http://www.w3.org/2000/svg" xmlns:xlink="http://www.w3.org/1999/xlink" x="0px" y="0px"
	 viewBox="0 0 256 256" style="enable-background:new 0 0 256 256;" xml:space="preserve">
<style type="text/css">
	.st0{fill:url(#SVGID_1_);}
</style>
<g id="Layer_1">
	<g transform="translate(1.4065934065934016 1.4065934065934016) scale(2.81 2.81)">
		<linearGradient id="SVGID_1_" gradientUnits="userSpaceOnUse" x1="-8.354327e-04" y1="45.0006" x2="252.8993" y2="45.0006">
			<stop  offset="0.2593" style="stop-color:#FFDB6E"/>
			<stop  offset="1" style="stop-color:#FFBC5E"/>
		</linearGradient>
		<path class="st0" d="M83.9,7.8L4.2,38.5c-5.4,2.2-5.4,5.2-1,6.6l20.5,6.4l7,23.2c0.9,2.6,0.5,3.6,3.2,3.6c2.1,0,3-0.9,4.1-2.1
			l9.9-9.7l20.7,15.3c3.8,2.1,6.6,1,7.5-3.5l13.6-64C91.1,8.6,87.6,6.1,83.9,7.8z M40.8,56.8L33.9,72l-6.7-22.2L79.1,19L40.8,56.8z"
			/>
	</g>
</g>
<g id="Layer_2">
</g>
</svg>
